<svg width="400" height="137" viewBox="0 0 400 137" fill="none" xmlns="http://www.w3.org/2000/svg">
<path d="M116.576 19.8869C116.23 19.544 115.872 19.215 115.519 18.8796C114.825 18.2225 114.124 17.5742 113.404 16.9475C113.162 16.736 112.921 16.525 112.676 16.3168C102.752 7.91705 90.5453 2.40226 77.5398 0.627682C77.3657 0.604393 77.191 0.58296 77.0165 0.56097C75.8434 0.410197 74.6627 0.297279 73.4781 0.207928C73.1742 0.185475 72.8721 0.156804 72.5671 0.138433C71.1871 0.0531651 69.8016 0.000185514 68.41 9.27837e-05C68.409 9.29357e-05 68.4081 0 68.4072 0C30.6874 0.000185612 0 30.6877 0 68.4075C0 106.128 30.6874 136.815 68.4072 136.815C68.4081 136.815 68.409 136.815 68.41 136.815C69.8013 136.815 71.1865 136.762 72.5664 136.677C72.8704 136.658 73.1717 136.63 73.4747 136.607C74.6604 136.518 75.842 136.405 77.0163 136.254C77.1889 136.232 77.3617 136.211 77.5339 136.188C90.5474 134.413 102.763 128.893 112.692 120.484C112.917 120.293 113.138 120.1 113.36 119.906C114.104 119.259 114.829 118.59 115.546 117.91C115.881 117.591 116.222 117.278 116.551 116.952C117.199 116.312 117.825 115.648 118.448 114.982C119.172 114.205 119.876 113.411 120.563 112.602C120.834 112.283 121.109 111.966 121.375 111.641C121.93 110.962 122.473 110.272 123.002 109.571C123.181 109.335 123.355 109.094 123.531 108.855C125.156 106.647 126.645 104.335 128 101.937L69.927 68.4075L128 34.879C126.643 32.4767 125.151 30.1611 123.524 27.9496C123.354 27.7191 123.186 27.4866 123.013 27.2585C122.479 26.551 121.931 25.8543 121.37 25.1685C121.117 24.8598 120.857 24.5584 120.598 24.2547M69.1669 9.92359C89.3409 10.3662 108.037 21.2855 118.325 38.7095L69.1669 67.091V9.92359ZM67.6467 67.0909L17.7437 38.2791C27.9544 21.3449 46.4926 9.97749 67.6467 9.88749V67.0909ZM16.9852 39.5968L66.887 68.4074L16.9857 97.219C12.1493 88.7064 9.37189 78.8779 9.37189 68.4075C9.37189 57.9374 12.1491 48.1093 16.9852 39.5968ZM67.6467 69.723V126.928C46.4926 126.838 27.9544 115.47 17.7437 98.5355L67.6467 69.723ZM69.1669 69.7241L118.325 98.105C108.038 115.529 89.34 126.449 69.1669 126.892V69.7241ZM119.641 37.9495C108.868 19.6911 89.0971 8.36092 67.8984 8.36092C34.7887 8.36092 7.85173 35.2979 7.85173 68.4075C7.85173 101.517 34.7887 128.454 67.8984 128.454C89.0968 128.454 108.867 117.124 119.64 98.8646L124.641 101.752L124.614 101.798C112.872 121.521 91.334 133.775 68.4075 133.775C32.3637 133.775 3.04034 104.451 3.04034 68.4075C3.04034 32.3637 32.3637 3.04034 68.4075 3.04034C91.3429 3.04034 112.885 15.2997 124.626 35.0381L124.641 35.0629L119.641 37.9495Z" fill="#41A4C3"/>
<path d="M102.325 30.9418C99.0531 29.0527 94.8694 30.1737 92.9803 33.4456C91.0914 36.7175 92.2124 40.9013 95.4843 42.7903C98.7561 44.6793 102.94 43.5582 104.829 40.2864C106.718 37.0145 105.597 32.8308 102.325 30.9418Z" fill="#41A4C3"/>
<path d="M83.2285 42.7357C79.9565 40.8467 75.7728 41.9677 73.8839 45.2395C71.9948 48.5115 73.1158 52.6952 76.3877 54.5842C79.6596 56.4732 83.8433 55.3522 85.7323 52.0803C87.6214 48.8085 86.5004 44.6247 83.2285 42.7357Z" fill="#41A4C3"/>
<path d="M83.8939 20.3006C80.6221 18.4115 76.4383 19.5325 74.5493 22.8044C72.6603 26.0763 73.7814 30.2601 77.0532 32.1491C80.3251 34.0381 84.5088 32.917 86.3979 29.6452C88.2869 26.3733 87.1659 22.1896 83.8939 20.3006Z" fill="#41A4C3"/>
<path d="M59.7604 32.1491C63.0322 30.2601 64.1532 26.0763 62.2642 22.8044C60.3752 19.5325 56.1914 18.4115 52.9196 20.3006C49.6477 22.1896 48.5267 26.3733 50.4157 29.6452C52.3047 32.917 56.4884 34.0381 59.7604 32.1491Z" fill="#41A4C3"/>
<path d="M53.5852 42.7357C50.3133 44.6247 49.1923 48.8085 51.0814 52.0803C52.9703 55.3522 57.1541 56.4732 60.426 54.5842C63.6979 52.6952 64.8189 48.5115 62.9298 45.2395C61.0409 41.9677 56.8571 40.8467 53.5852 42.7357Z" fill="#41A4C3"/>
<path d="M41.3292 42.7903C44.6012 40.9013 45.7222 36.7175 43.8332 33.4456C41.9441 30.1737 37.7604 29.0527 34.4885 30.9418C31.2167 32.8308 30.0956 37.0145 31.9846 40.2864C33.8736 43.5582 38.0574 44.6793 41.3292 42.7903Z" fill="#41A4C3"/>
<path d="M77.0532 104.666C73.7814 106.555 72.6603 110.739 74.5493 114.011C76.4383 117.282 80.6221 118.403 83.8939 116.515C87.1659 114.626 88.2869 110.442 86.3979 107.17C84.5088 103.898 80.3251 102.777 77.0532 104.666Z" fill="#41A4C3"/>
<path d="M86.4157 89.9256C87.3936 86.2763 85.2279 82.5253 81.5786 81.5475C77.9293 80.5696 74.1782 82.7353 73.2004 86.3846C72.2226 90.0339 74.3883 93.7849 78.0376 94.7627C81.6869 95.7405 85.4379 93.5749 86.4157 89.9256Z" fill="#41A4C3"/>
<path d="M95.4843 94.0247C92.2124 95.9138 91.0914 100.098 92.9803 103.369C94.8694 106.641 99.0531 107.762 102.325 105.873C105.597 103.984 106.718 99.8005 104.829 96.5287C102.94 93.2568 98.7561 92.1358 95.4843 94.0247Z" fill="#41A4C3"/>
<path d="M34.4885 105.873C37.7604 107.762 41.9441 106.641 43.8332 103.369C45.7222 100.098 44.6012 95.9138 41.3292 94.0247C38.0574 92.1358 33.8736 93.2568 31.9846 96.5287C30.0956 99.8005 31.2167 103.984 34.4885 105.873Z" fill="#41A4C3"/>
<path d="M58.7761 94.7627C62.4254 93.7849 64.5911 90.0339 63.6133 86.3846C62.6354 82.7353 58.8844 80.5696 55.2351 81.5475C51.5858 82.5253 49.4201 86.2763 50.3979 89.9256C51.3757 93.5749 55.1268 95.7405 58.7761 94.7627Z" fill="#41A4C3"/>
<path d="M52.9196 116.515C56.1914 118.403 60.3752 117.282 62.2642 114.011C64.1532 110.739 63.0322 106.555 59.7604 104.666C56.4884 102.777 52.3047 103.898 50.4157 107.17C48.5267 110.442 49.6477 114.626 52.9196 116.515Z" fill="#41A4C3"/>
<path d="M25.8421 64.6071C29.6201 64.6071 32.6829 61.5444 32.6829 57.7664C32.6829 53.9883 29.6201 50.9256 25.8421 50.9256C22.0641 50.9256 19.0013 53.9883 19.0013 57.7664C19.0013 61.5444 22.0641 64.6071 25.8421 64.6071Z" fill="#41A4C3"/>
<path d="M45.6043 75.2483C49.3823 75.2483 52.4451 72.1856 52.4451 68.4075C52.4451 64.6295 49.3823 61.5668 45.6043 61.5668C41.8263 61.5668 38.7635 64.6295 38.7635 68.4075C38.7635 72.1856 41.8263 75.2483 45.6043 75.2483Z" fill="#41A4C3"/>
<path d="M25.8421 85.8895C29.6201 85.8895 32.6829 82.8268 32.6829 79.0487C32.6829 75.2707 29.6201 72.208 25.8421 72.208C22.0641 72.208 19.0013 75.2707 19.0013 79.0487C19.0013 82.8268 22.0641 85.8895 25.8421 85.8895Z" fill="#41A4C3"/>
<path d="M133.712 72.0231H126.103V67.2243H133.712C134.887 67.2243 135.844 67.0329 136.583 66.6501C137.321 66.2536 137.861 65.7067 138.203 65.0094C138.545 64.3122 138.716 63.526 138.716 62.651C138.716 61.7624 138.545 60.9352 138.203 60.1696C137.861 59.404 137.321 58.7887 136.583 58.3239C135.844 57.8591 134.887 57.6266 133.712 57.6266H128.236V82.6667H122.084V52.8073H133.712C136.05 52.8073 138.053 53.2311 139.72 54.0788C141.402 54.9128 142.687 56.068 143.576 57.5446C144.465 59.0212 144.909 60.7096 144.909 62.61C144.909 64.5378 144.465 66.2057 143.576 67.6139C142.687 69.0221 141.402 70.1091 139.72 70.8747C138.053 71.6403 136.05 72.0231 133.712 72.0231ZM155.019 60.4772V82.6667H149.093V60.4772H155.019ZM148.723 54.694C148.723 53.8327 149.024 53.1217 149.626 52.5612C150.227 52.0007 151.034 51.7204 152.046 51.7204C153.044 51.7204 153.844 52.0007 154.445 52.5612C155.06 53.1217 155.368 53.8327 155.368 54.694C155.368 55.5553 155.06 56.2663 154.445 56.8268C153.844 57.3874 153.044 57.6676 152.046 57.6676C151.034 57.6676 150.227 57.3874 149.626 56.8268C149.024 56.2663 148.723 55.5553 148.723 54.694ZM177.557 78.0524V82.6667H160.7V78.0524H177.557ZM177.229 63.8815L163.079 82.6667H159.121V79.1598L173.21 60.4772H177.229V63.8815ZM175.137 60.4772V65.112H159.449V60.4772H175.137ZM198.927 78.0524V82.6667H182.069V78.0524H198.927ZM198.598 63.8815L184.448 82.6667H180.49V79.1598L194.579 60.4772H198.598V63.8815ZM196.507 60.4772V65.112H180.818V60.4772H196.507ZM214.615 77.6628V67.778C214.615 67.0671 214.499 66.4587 214.266 65.9528C214.034 65.4333 213.672 65.03 213.179 64.7428C212.701 64.4557 212.079 64.3122 211.313 64.3122C210.657 64.3122 210.09 64.4284 209.611 64.6608C209.133 64.8796 208.763 65.2009 208.504 65.6247C208.244 66.0348 208.114 66.5202 208.114 67.0807H202.208C202.208 66.1374 202.427 65.2419 202.864 64.3942C203.302 63.5466 203.937 62.8014 204.771 62.1589C205.605 61.5026 206.596 60.9899 207.745 60.6208C208.907 60.2516 210.206 60.0671 211.641 60.0671C213.364 60.0671 214.895 60.3542 216.235 60.9284C217.575 61.5026 218.628 62.3639 219.393 63.5124C220.173 64.6608 220.562 66.0964 220.562 67.819V77.3141C220.562 78.5309 220.637 79.529 220.788 80.3083C220.938 81.0739 221.157 81.7438 221.444 82.318V82.6667H215.476C215.189 82.0651 214.97 81.3132 214.82 80.4108C214.683 79.4948 214.615 78.5788 214.615 77.6628ZM215.394 69.152L215.435 72.4948H212.134C211.354 72.4948 210.678 72.5837 210.103 72.7614C209.529 72.9391 209.057 73.1921 208.688 73.5202C208.319 73.8346 208.046 74.2038 207.868 74.6276C207.704 75.0514 207.622 75.5163 207.622 76.0221C207.622 76.528 207.738 76.986 207.97 77.3962C208.203 77.7926 208.538 78.1071 208.975 78.3395C209.413 78.5583 209.926 78.6676 210.513 78.6676C211.402 78.6676 212.175 78.4899 212.831 78.1344C213.487 77.779 213.993 77.3415 214.348 76.8219C214.718 76.3024 214.909 75.8102 214.923 75.3454L216.481 77.8473C216.262 78.4079 215.962 78.9889 215.579 79.5905C215.21 80.1921 214.738 80.7594 214.164 81.2926C213.59 81.8122 212.899 82.2428 212.093 82.5846C211.286 82.9128 210.329 83.0768 209.221 83.0768C207.813 83.0768 206.535 82.7966 205.386 82.236C204.252 81.6618 203.349 80.8757 202.679 79.8776C202.023 78.8659 201.695 77.7175 201.695 76.4323C201.695 75.2702 201.914 74.238 202.351 73.3356C202.789 72.4333 203.431 71.6745 204.279 71.0592C205.14 70.4303 206.214 69.9587 207.499 69.6442C208.784 69.3161 210.274 69.152 211.969 69.152H215.394ZM243.1 82.6667H237.153V58.5085C237.153 56.8268 237.481 55.4118 238.137 54.2634C238.807 53.1012 239.744 52.2262 240.947 51.6384C242.164 51.0368 243.606 50.736 245.274 50.736C245.821 50.736 246.347 50.777 246.853 50.8591C247.359 50.9274 247.851 51.0163 248.33 51.1257L248.268 55.5759C248.009 55.5075 247.735 55.4596 247.448 55.4323C247.161 55.405 246.826 55.3913 246.443 55.3913C245.732 55.3913 245.124 55.5143 244.618 55.7604C244.126 55.9928 243.75 56.3415 243.49 56.8063C243.23 57.2712 243.1 57.8385 243.1 58.5085V82.6667ZM247.53 60.4772V64.6608H233.851V60.4772H247.53ZM249.683 71.7975V71.3669C249.683 69.7399 249.916 68.2428 250.381 66.8757C250.845 65.4948 251.522 64.2985 252.411 63.2868C253.3 62.2751 254.393 61.4889 255.692 60.9284C256.991 60.3542 258.481 60.0671 260.163 60.0671C261.844 60.0671 263.342 60.3542 264.654 60.9284C265.967 61.4889 267.067 62.2751 267.956 63.2868C268.858 64.2985 269.542 65.4948 270.007 66.8757C270.471 68.2428 270.704 69.7399 270.704 71.3669V71.7975C270.704 73.4108 270.471 74.9079 270.007 76.2887C269.542 77.6559 268.858 78.8522 267.956 79.8776C267.067 80.8893 265.973 81.6755 264.675 82.236C263.376 82.7966 261.886 83.0768 260.204 83.0768C258.522 83.0768 257.025 82.7966 255.713 82.236C254.414 81.6755 253.313 80.8893 252.411 79.8776C251.522 78.8522 250.845 77.6559 250.381 76.2887C249.916 74.9079 249.683 73.4108 249.683 71.7975ZM255.59 71.3669V71.7975C255.59 72.7272 255.672 73.5954 255.836 74.402C256 75.2087 256.26 75.9196 256.615 76.5348C256.984 77.1364 257.463 77.6081 258.051 77.9499C258.638 78.2917 259.356 78.4626 260.204 78.4626C261.024 78.4626 261.728 78.2917 262.316 77.9499C262.904 77.6081 263.376 77.1364 263.731 76.5348C264.087 75.9196 264.346 75.2087 264.511 74.402C264.688 73.5954 264.777 72.7272 264.777 71.7975V71.3669C264.777 70.4645 264.688 69.6169 264.511 68.8239C264.346 68.0173 264.08 67.3063 263.711 66.6911C263.355 66.0622 262.884 65.57 262.296 65.2145C261.708 64.8591 260.997 64.6813 260.163 64.6813C259.329 64.6813 258.618 64.8591 258.03 65.2145C257.456 65.57 256.984 66.0622 256.615 66.6911C256.26 67.3063 256 68.0173 255.836 68.8239C255.672 69.6169 255.59 70.4645 255.59 71.3669ZM280.24 65.3171V82.6667H274.334V60.4772H279.891L280.24 65.3171ZM286.926 60.3337L286.823 65.8092C286.536 65.7682 286.187 65.7341 285.777 65.7067C285.381 65.6657 285.018 65.6452 284.69 65.6452C283.856 65.6452 283.132 65.7546 282.516 65.9733C281.915 66.1784 281.409 66.486 280.999 66.8962C280.602 67.3063 280.302 67.8053 280.096 68.3932C279.905 68.9811 279.796 69.651 279.768 70.403L278.579 70.0339C278.579 68.5983 278.722 67.279 279.01 66.0759C279.297 64.8591 279.714 63.7995 280.261 62.8971C280.821 61.9948 281.505 61.2975 282.311 60.8053C283.118 60.3132 284.041 60.0671 285.08 60.0671C285.408 60.0671 285.743 60.0944 286.085 60.1491C286.427 60.1901 286.707 60.2516 286.926 60.3337ZM309.71 82.6667H303.209L303.25 77.8678H309.71C311.323 77.8678 312.683 77.5055 313.791 76.7809C314.898 76.0426 315.732 74.9694 316.293 73.5612C316.867 72.153 317.154 70.4509 317.154 68.4548V66.9987C317.154 65.4675 316.99 64.1208 316.662 62.9587C316.347 61.7966 315.876 60.819 315.247 60.026C314.618 59.2331 313.845 58.6384 312.929 58.2419C312.013 57.8317 310.961 57.6266 309.771 57.6266H303.086V52.8073H309.771C311.767 52.8073 313.593 53.1491 315.247 53.8327C316.915 54.5026 318.357 55.4665 319.574 56.7243C320.791 57.9821 321.727 59.486 322.384 61.236C323.053 62.9723 323.388 64.9069 323.388 67.0397V68.4548C323.388 70.5739 323.053 72.5085 322.384 74.2585C321.727 76.0085 320.791 77.5124 319.574 78.7702C318.371 80.0143 316.928 80.9782 315.247 81.6618C313.579 82.3317 311.733 82.6667 309.71 82.6667ZM306.695 52.8073V82.6667H300.543V52.8073H306.695ZM337.703 83.0768C335.98 83.0768 334.435 82.8034 333.068 82.2565C331.701 81.696 330.539 80.9235 329.582 79.9391C328.638 78.9548 327.914 77.8132 327.408 76.5143C326.902 75.2018 326.649 73.8073 326.649 72.3307V71.5104C326.649 69.8288 326.888 68.2907 327.367 66.8962C327.845 65.5016 328.529 64.2917 329.418 63.2663C330.32 62.2409 331.414 61.4548 332.699 60.9079C333.984 60.3473 335.433 60.0671 337.047 60.0671C338.619 60.0671 340.013 60.3268 341.23 60.8464C342.447 61.3659 343.466 62.1042 344.286 63.0612C345.12 64.0182 345.749 65.1667 346.173 66.5065C346.596 67.8327 346.808 69.3092 346.808 70.9362V73.3971H329.172V69.4596H341.005V69.0085C341.005 68.1882 340.854 67.4567 340.553 66.8141C340.266 66.1579 339.829 65.6384 339.241 65.2555C338.653 64.8727 337.901 64.6813 336.985 64.6813C336.206 64.6813 335.536 64.8522 334.975 65.194C334.415 65.5358 333.957 66.0143 333.601 66.6296C333.26 67.2448 333 67.9694 332.822 68.8034C332.658 69.6237 332.576 70.526 332.576 71.5104V72.3307C332.576 73.2194 332.699 74.0397 332.945 74.7917C333.205 75.5436 333.567 76.193 334.032 76.7399C334.511 77.2868 335.085 77.7106 335.755 78.0114C336.438 78.3122 337.211 78.4626 338.072 78.4626C339.138 78.4626 340.13 78.2575 341.046 77.8473C341.975 77.4235 342.775 76.7878 343.445 75.9401L346.316 79.0573C345.851 79.7272 345.216 80.3698 344.409 80.985C343.616 81.6003 342.659 82.1061 341.538 82.5026C340.417 82.8854 339.138 83.0768 337.703 83.0768ZM357.431 78.36L362.353 60.4772H368.526L361.041 82.6667H357.308L357.431 78.36ZM354.048 60.4772L358.99 78.3805L359.093 82.6667H355.34L347.854 60.4772H354.048ZM383.169 76.5348C383.169 76.111 383.046 75.7282 382.8 75.3864C382.553 75.0446 382.095 74.7301 381.426 74.443C380.769 74.1423 379.819 73.8688 378.575 73.6227C377.454 73.3766 376.408 73.069 375.437 72.6999C374.48 72.3171 373.646 71.8591 372.935 71.3259C372.238 70.7926 371.691 70.1637 371.295 69.4391C370.898 68.7009 370.7 67.86 370.7 66.9167C370.7 65.987 370.898 65.112 371.295 64.2917C371.705 63.4714 372.286 62.7467 373.038 62.1178C373.803 61.4753 374.733 60.9762 375.827 60.6208C376.934 60.2516 378.178 60.0671 379.559 60.0671C381.487 60.0671 383.141 60.3747 384.522 60.9899C385.917 61.6051 386.983 62.4528 387.721 63.5329C388.473 64.5993 388.849 65.8161 388.849 67.1833H382.943C382.943 66.6091 382.82 66.0964 382.574 65.6452C382.342 65.1803 381.972 64.818 381.467 64.5583C380.974 64.2848 380.332 64.1481 379.539 64.1481C378.883 64.1481 378.315 64.2643 377.837 64.4967C377.358 64.7155 376.989 65.0163 376.729 65.3991C376.483 65.7682 376.36 66.1784 376.36 66.6296C376.36 66.9714 376.428 67.279 376.565 67.5524C376.716 67.8122 376.955 68.0514 377.283 68.2702C377.611 68.4889 378.035 68.694 378.554 68.8854C379.088 69.0632 379.744 69.2272 380.523 69.3776C382.123 69.7057 383.552 70.1364 384.809 70.6696C386.067 71.1891 387.065 71.9001 387.803 72.8024C388.542 73.6911 388.911 74.86 388.911 76.3092C388.911 77.2936 388.692 78.196 388.255 79.0163C387.817 79.8366 387.188 80.5544 386.368 81.1696C385.548 81.7712 384.563 82.2428 383.415 82.5846C382.28 82.9128 381.002 83.0768 379.58 83.0768C377.515 83.0768 375.765 82.7077 374.33 81.9694C372.908 81.2311 371.828 80.2946 371.09 79.1598C370.365 78.0114 370.003 76.8356 370.003 75.6325H375.601C375.629 76.4391 375.834 77.0885 376.217 77.5807C376.613 78.0729 377.112 78.4284 377.714 78.6471C378.329 78.8659 378.992 78.9753 379.703 78.9753C380.469 78.9753 381.104 78.8727 381.61 78.6676C382.116 78.4489 382.499 78.1618 382.759 77.8063C383.032 77.4372 383.169 77.0134 383.169 76.5348Z" fill="white"/>
</svg>
